<?xml version="1.0" encoding="UTF-8"?>
<svg width="6px" height="10px" viewBox="0 0 6 10" version="1.1" xmlns="http://www.w3.org/2000/svg" xmlns:xlink="http://www.w3.org/1999/xlink">
    <!-- Generator: Sketch 59 (86127) - https://sketch.com -->
    <title></title>
    <desc>Created with Sketch.</desc>
    <g id="Final-Template" stroke="none" stroke-width="1" fill="none" fill-rule="evenodd">
        <g id="05-Quick-Comps(Results)" transform="translate(-1073.000000, -483.000000)" fill="#9191AF" fill-rule="nonzero">
            <g id="Main-Panel" transform="translate(165.000000, 282.000000)">
                <g id="Property-Info" transform="translate(160.000000, 167.000000)">
                    <g id="Group-9" transform="translate(30.000000, 20.000000)">
                        <path d="M723.223214,18.6517857 C723.282738,18.7113098 723.3125,18.7797615 723.3125,18.8571429 C723.3125,18.9345242 723.282738,19.0029759 723.223214,19.0625 L719.0625,23.2232143 C719.002976,23.2827384 718.934524,23.3125 718.857143,23.3125 C718.779762,23.3125 718.71131,23.2827384 718.651786,23.2232143 L718.205357,22.7767857 C718.145833,22.7172616 718.116071,22.6488099 718.116071,22.5714286 C718.116071,22.4940472 718.145833,22.4255955 718.205357,22.3660714 L721.714286,18.8571429 L718.205357,15.3482143 C718.145833,15.2886902 718.116071,15.2202385 718.116071,15.1428571 C718.116071,15.0654758 718.145833,14.9970241 718.205357,14.9375 L718.651786,14.4910714 C718.71131,14.4315473 718.779762,14.4017857 718.857143,14.4017857 C718.934524,14.4017857 719.002976,14.4315473 719.0625,14.4910714 L723.223214,18.6517857 Z" id=""></path>
                    </g>
                </g>
            </g>
        </g>
    </g>
</svg>