<?xml version="1.0" encoding="UTF-8"?>
<svg width="14px" height="11px" viewBox="0 0 14 11" version="1.1" xmlns="http://www.w3.org/2000/svg" xmlns:xlink="http://www.w3.org/1999/xlink">
    <!-- Generator: Sketch 59 (86127) - https://sketch.com -->
    <title></title>
    <desc>Created with Sketch.</desc>
    <g id="Final-Template" stroke="none" stroke-width="1" fill="none" fill-rule="evenodd">
        <g id="01-Quick-Comps(Property-Info)" transform="translate(-452.000000, -355.000000)" fill="#FFFFFF" fill-rule="nonzero">
            <g id="Main-Panel" transform="translate(165.000000, 282.000000)">
                <g id="Progress-Bar" transform="translate(243.000000, 60.000000)">
                    <g id="Group-6">
                        <g id="Group-8" transform="translate(33.000000, 0.000000)">
                            <path d="M24.6696429,14.7321429 C24.8363104,14.8988104 24.9196429,15.1011893 24.9196429,15.3392857 C24.9196429,15.5773821 24.8363104,15.7797611 24.6696429,15.9464286 L16.9910714,23.625 C16.8244039,23.7916675 16.622025,23.875 16.3839286,23.875 C16.1458321,23.875 15.9434532,23.7916675 15.7767857,23.625 L11.3303571,19.1785714 C11.1636896,19.0119039 11.0803571,18.809525 11.0803571,18.5714286 C11.0803571,18.3333321 11.1636896,18.1309532 11.3303571,17.9642857 L12.5446429,16.75 C12.7113104,16.5833325 12.9136893,16.5 13.1517857,16.5 C13.3898821,16.5 13.5922611,16.5833325 13.7589286,16.75 L16.3839286,19.3839286 L22.2410714,13.5178571 C22.4077389,13.3511896 22.6101179,13.2678571 22.8482143,13.2678571 C23.0863107,13.2678571 23.2886896,13.3511896 23.4553571,13.5178571 L24.6696429,14.7321429 Z" id=""></path>
                        </g>
                    </g>
                </g>
            </g>
        </g>
    </g>
</svg>