<?xml version="1.0" encoding="UTF-8"?>
<svg width="6px" height="10px" viewBox="0 0 6 10" version="1.1" xmlns="http://www.w3.org/2000/svg" xmlns:xlink="http://www.w3.org/1999/xlink">
    <!-- Generator: Sketch 59 (86127) - https://sketch.com -->
    <title></title>
    <desc>Created with Sketch.</desc>
    <g id="Final-Template" stroke="none" stroke-width="1" fill="none" fill-rule="evenodd">
        <g id="02-Quick-Comps(Property-Sold)" transform="translate(-379.000000, -1542.000000)" fill="#38AA9D" fill-rule="nonzero">
            <g id="Main-Panel" transform="translate(165.000000, 282.000000)">
                <g id="Properties-Sold" transform="translate(160.000000, 258.000000)">
                    <g id="Button_01-Copy" transform="translate(30.000000, 983.000000)">
                        <g id="Button">
                            <path d="M29.2232143,23.6517857 C29.2827384,23.7113098 29.3125,23.7797615 29.3125,23.8571429 C29.3125,23.9345242 29.2827384,24.0029759 29.2232143,24.0625 L25.0625,28.2232143 C25.0029759,28.2827384 24.9345242,28.3125 24.8571429,28.3125 C24.7797615,28.3125 24.7113098,28.2827384 24.6517857,28.2232143 L24.2053571,27.7767857 C24.145833,27.7172616 24.1160714,27.6488099 24.1160714,27.5714286 C24.1160714,27.4940472 24.145833,27.4255955 24.2053571,27.3660714 L27.7142857,23.8571429 L24.2053571,20.3482143 C24.145833,20.2886902 24.1160714,20.2202385 24.1160714,20.1428571 C24.1160714,20.0654758 24.145833,19.9970241 24.2053571,19.9375 L24.6517857,19.4910714 C24.7113098,19.4315473 24.7797615,19.4017857 24.8571429,19.4017857 C24.9345242,19.4017857 25.0029759,19.4315473 25.0625,19.4910714 L29.2232143,23.6517857 Z" id="" transform="translate(26.714286, 23.857143) rotate(-180.000000) translate(-26.714286, -23.857143) "></path>
                        </g>
                    </g>
                </g>
            </g>
        </g>
    </g>
</svg>