<?xml version="1.0" encoding="UTF-8"?>
<svg width="10px" height="6px" viewBox="0 0 10 6" version="1.1" xmlns="http://www.w3.org/2000/svg" xmlns:xlink="http://www.w3.org/1999/xlink">
    <!-- Generator: Sketch 59 (86127) - https://sketch.com -->
    <title></title>
    <desc>Created with Sketch.</desc>
    <g id="Symbols" stroke="none" stroke-width="1" fill="none" fill-rule="evenodd">
        <g id="Dropdown-fill" transform="translate(-324.000000, -48.000000)" fill="#38AA9D" fill-rule="nonzero">
            <g id="Input">
                <g transform="translate(0.000000, 27.000000)">
                    <g id="Icon" transform="translate(324.000000, 21.000000)">
                        <path d="M4.57142857,5.14285714 C4.72619048,5.14285714 4.86011905,5.08630952 4.97321429,4.97321429 L4.97321429,4.97321429 L8.97321429,0.973214286 C9.08630952,0.860119048 9.14285714,0.726190476 9.14285714,0.571428571 C9.14285714,0.416666667 9.08630952,0.282738095 8.97321429,0.169642857 C8.86011905,0.056547619 8.72619048,-1.29674049e-13 8.57142857,-1.29674049e-13 L8.57142857,-1.29674049e-13 L0.571428571,-1.29674049e-13 C0.416666667,-1.29674049e-13 0.282738095,0.056547619 0.169642857,0.169642857 C0.056547619,0.282738095 7.67386155e-13,0.416666667 7.67386155e-13,0.571428571 C7.67386155e-13,0.726190476 0.056547619,0.860119048 0.169642857,0.973214286 L0.169642857,0.973214286 L4.16964286,4.97321429 C4.2827381,5.08630952 4.41666667,5.14285714 4.57142857,5.14285714 Z" id=""></path>
                    </g>
                </g>
            </g>
        </g>
    </g>
</svg>